<svg width="411" height="393" viewBox="0 0 411 393" fill="none" xmlns="http://www.w3.org/2000/svg">
<path fill-rule="evenodd" clip-rule="evenodd" d="M368.672 234.135L368.324 235.662L368.062 237.183L367.886 238.703L367.795 240.223L367.788 241.748L367.863 243.28L368.018 244.823L368.25 246.379L368.556 247.951L368.933 249.542L369.376 251.154L369.881 252.789L370.444 254.45L371.06 256.137L371.724 257.853L372.429 259.599L373.169 261.375L373.938 263.181L374.73 265.019L375.536 266.888L376.35 268.786L377.165 270.714L377.974 272.67L378.769 274.653L379.543 276.661L380.29 278.691L381.003 280.742L381.676 282.811L382.302 284.894L382.876 286.99L383.394 289.096L383.85 291.207L384.241 293.322L384.564 295.436L384.814 297.547L384.99 299.652L385.09 301.748L385.111 303.831L385.052 305.899L384.912 307.948L384.689 309.975L384.384 311.978L383.996 313.953L383.525 315.898L382.971 317.81L382.335 319.686L381.618 321.525L380.821 323.324L379.945 325.081L378.993 326.793L377.967 328.46L376.868 330.08L375.699 331.651L374.462 333.173L373.161 334.644L371.798 336.063L370.376 337.431L368.898 338.747L367.368 340.011L365.789 341.223L364.165 342.383L362.498 343.492L360.792 344.55L359.05 345.558L357.276 346.518L355.473 347.429L353.644 348.294L351.792 349.114L349.922 349.891L348.034 350.625L346.133 351.318L344.221 351.973L342.3 352.59L340.374 353.173L338.444 353.722L336.513 354.239L334.583 354.727L332.655 355.187L330.732 355.622L328.815 356.032L326.906 356.421L325.006 356.789L323.115 357.138L321.236 357.471L319.368 357.788L317.513 358.091L315.672 358.382L313.844 358.663L312.03 358.933L310.23 359.195L308.445 359.45L306.675 359.698L304.919 359.941L303.177 360.179L301.449 360.413L299.735 360.643L298.034 360.871L296.346 361.096L294.671 361.319L293.008 361.54L291.357 361.759L289.716 361.977L288.087 362.193L286.467 362.407L284.857 362.62L283.255 362.832L281.662 363.041L280.077 363.247L278.498 363.45L276.926 363.649L275.358 363.84L273.796 364.024L272.237 364.199L270.681 364.361L269.128 364.51L267.577 364.643L266.027 364.759L264.479 364.854L262.932 364.927L261.386 364.977L259.841 365L258.297 364.996L256.755 364.962L255.215 364.898L253.677 364.803L252.142 364.674L250.61 364.512L249.083 364.315L247.561 364.084L246.044 363.818L244.533 363.517L243.03 363.181L241.535 362.811L240.048 362.408L238.571 361.971L237.105 361.502L235.65 361.002L234.206 360.473L232.775 359.917L231.356 359.334L229.951 358.727L228.56 358.097L227.183 357.448L225.82 356.781L224.471 356.099L223.136 355.404L221.816 354.7L220.509 353.988L219.216 353.272L217.935 352.555L216.667 351.839L215.41 351.127L214.163 350.423L212.926 349.728L211.696 349.046L210.474 348.379L209.257 347.73L208.044 347.102L206.834 346.496L205.624 345.915L204.414 345.36L203.2 344.835L201.982 344.34L200.757 343.876L199.524 343.446L198.281 343.05L197.025 342.689L195.755 342.364L194.469 342.074L193.164 341.821L191.84 341.604L190.495 341.423L189.126 341.277L187.732 341.166L186.312 341.089L184.863 341.044L183.386 341.032L181.878 341.049L180.338 341.095L178.765 341.168L177.159 341.266L175.518 341.386L173.843 341.528L172.132 341.688L170.385 341.864L168.602 342.054L166.783 342.254L164.928 342.464L163.037 342.678L161.111 342.896L159.15 343.114L157.155 343.329L155.127 343.539L153.066 343.74L150.975 343.93L148.853 344.106L146.703 344.265L144.526 344.404L142.324 344.522L140.098 344.614L137.852 344.677L135.587 344.709L133.308 344.705L131.016 344.662L128.717 344.577L126.414 344.447L124.111 344.268L121.812 344.037L119.523 343.75L117.246 343.405L114.989 343L112.755 342.53L110.549 341.995L108.378 341.392L106.246 340.718L104.159 339.972L102.123 339.153L100.143 338.258L98.2254 337.288L96.3749 336.241L94.5973 335.117L92.8975 333.916L91.2803 332.639L89.7501 331.287L88.3112 329.86L86.9671 328.362L85.7212 326.794L84.5765 325.158L83.5353 323.457L82.5999 321.695L81.7715 319.874L81.0513 317.998L80.4399 316.072L79.9373 314.098L79.5432 312.081L79.2566 310.026L79.0761 307.937L79 305.818L79.026 303.673L79.1513 301.508L79.3728 299.326L79.6869 297.133L80.0897 294.931L80.5768 292.727L81.1435 290.523L81.7848 288.324L82.4953 286.133L83.2694 283.955L84.1014 281.792L84.985 279.648L85.914 277.526L86.8821 275.427L87.8826 273.355L88.909 271.312L89.9545 269.3L91.0126 267.319L92.0765 265.372L93.1396 263.459L94.1954 261.58L95.2376 259.736L96.26 257.927L97.2565 256.153L98.2214 254.412L99.1491 252.704L100.035 251.028L100.873 249.382L101.659 247.766L102.39 246.175L103.061 244.61L103.668 243.067L104.21 241.544L104.684 240.038L105.087 238.547L105.418 237.068L105.676 235.598L105.86 234.135L105.97 232.674L106.007 231.215L105.971 229.752L105.863 228.285L105.685 226.81L105.439 225.323L105.126 223.824L104.75 222.309L104.315 220.777L103.822 219.224L103.276 217.649L102.682 216.051L102.042 214.427L101.363 212.777L100.648 211.099L99.9025 209.392L99.1319 207.657L98.3415 205.892L97.5369 204.097L96.7237 202.273L95.9076 200.42L95.0942 198.539L94.2895 196.631L93.4989 194.696L92.7282 192.737L91.9826 190.755L91.2677 188.752L90.5884 186.73L89.9496 184.691L89.3559 182.637L88.8117 180.571L88.3209 178.496L87.8872 176.414L87.5138 174.327L87.2037 172.24L86.9596 170.154L86.7838 168.072L86.6784 165.998L86.6453 163.933L86.686 161.882L86.8015 159.846L86.993 157.828L87.2608 155.832L87.6052 153.859L88.0263 151.913L88.5235 149.995L89.0964 148.108L89.7439 146.254L90.4649 144.435L91.2577 142.653L92.1207 140.908L93.0517 139.203L94.0484 137.538L95.1083 135.914L96.2286 134.332L97.4064 132.792L98.6385 131.294L99.9217 129.838L101.252 128.424L102.627 127.05L104.043 125.716L105.495 124.42L106.981 123.161L108.496 121.937L110.036 120.747L111.599 119.588L113.181 118.457L114.778 117.354L116.386 116.273L118.003 115.214L119.625 114.172L121.25 113.146L122.874 112.131L124.496 111.125L126.112 110.124L127.72 109.124L129.319 108.124L130.907 107.119L132.482 106.106L134.043 105.082L135.589 104.043L137.119 102.988L138.633 101.912L140.131 100.813L141.611 99.6891L143.075 98.5369L144.523 97.3544L145.956 96.1396L147.374 94.8907L148.779 93.6061L150.171 92.2844L151.553 90.9245L152.925 89.5258L154.29 88.0877L155.65 86.61L157.006 85.093L158.361 83.537L159.717 81.9429L161.077 80.3118L162.442 78.645L163.816 76.9444L165.2 75.2118L166.598 73.4497L168.011 71.6605L169.442 69.8472L170.894 68.0129L172.367 66.1607L173.866 64.2942L175.391 62.4168L176.944 60.5321L178.527 58.6439L180.142 56.7559L181.79 54.872L183.471 52.9962L185.188 51.1325L186.941 49.285L188.73 47.4577L190.557 45.6548L192.421 43.8803L194.323 42.1384L196.262 40.4331L198.24 38.7683L200.254 37.1481L202.305 35.5762L204.392 34.0564L206.514 32.5922L208.671 31.187L210.86 29.8444L213.08 28.5676L215.331 27.3596L217.611 26.2235L219.917 25.162L222.248 24.178L224.602 23.2738L226.977 22.4516L229.371 21.7136L231.781 21.0615L234.206 20.4969L236.642 20.0211L239.088 19.6351L241.541 19.3396L243.998 19.1352L246.458 19.0221L248.916 19L251.372 19.0686L253.823 19.2272L256.266 19.4749L258.699 19.8102L261.12 20.2316L263.527 20.7373L265.917 21.3251L268.289 21.9927L270.642 22.7374L272.973 23.5563L275.281 24.4463L277.566 25.4041L279.825 26.4263L282.058 27.5091L284.264 28.6487L286.443 29.8412L288.595 31.0824L290.718 32.3682L292.815 33.6944L294.884 35.0567L296.926 36.4508L298.942 37.8723L300.933 39.317L302.9 40.7806L304.844 42.2591L306.766 43.7483L308.669 45.2442L310.553 46.7432L312.42 48.2416L314.274 49.7358L316.114 51.2228L317.945 52.6994L319.767 54.163L321.583 55.611L323.395 57.0412L325.206 58.4516L327.017 59.8407L328.831 61.2071L330.649 62.5499L332.475 63.8682L334.309 65.1617L336.154 66.4303L338.01 67.6744L339.88 68.8944L341.764 70.0912L343.665 71.2659L345.582 72.42L347.516 73.5551L349.467 74.6732L351.437 75.7764L353.424 76.8672L355.428 77.9482L357.449 79.0221L359.485 80.0919L361.536 81.1608L363.599 82.2325L365.671 83.3108L367.751 84.4L369.835 85.5043L371.919 86.6281L373.999 87.7758L376.071 88.9519L378.129 90.1608L380.17 91.4065L382.187 92.6932L384.175 94.0246L386.128 95.404L388.042 96.8348L389.911 98.3196L391.728 99.8607L393.489 101.46L395.189 103.119L396.823 104.839L398.385 106.62L399.873 108.461L401.282 110.363L402.608 112.326L403.847 114.347L404.996 116.426L406.051 118.562L407.011 120.752L407.872 122.995L408.631 125.287L409.288 127.628L409.84 130.013L410.285 132.439L410.625 134.905L410.857 137.405L410.982 139.936L411 142.495L410.912 145.078L410.72 147.681L410.425 150.299L410.029 152.929L409.534 155.567L408.944 158.208L408.262 160.849L407.492 163.485L406.636 166.113L405.701 168.728L404.69 171.328L403.609 173.908L402.463 176.464L401.257 178.995L399.997 181.496L398.69 183.966L397.342 186.4L395.958 188.798L394.547 191.156L393.113 193.474L391.664 195.75L390.207 197.981L388.749 200.169L387.296 202.311L385.855 204.408L384.432 206.459L383.034 208.465L381.667 210.426L380.338 212.344L379.051 214.219L377.814 216.053L376.63 217.847L375.506 219.603L374.445 221.324L373.452 223.012L372.531 224.669L371.685 226.299L370.918 227.904L370.231 229.486L369.626 231.05L369.107 232.598L368.672 234.135Z" fill="url(#paint0_linear_163_2168)"/>
<path fill-rule="evenodd" clip-rule="evenodd" d="M353.492 187.109L354.141 188.997L354.811 190.9L355.5 192.821L356.208 194.759L356.932 196.717L357.672 198.694L358.428 200.693L359.196 202.714L359.976 204.758L360.765 206.825L361.562 208.917L362.365 211.034L363.172 213.176L363.979 215.344L364.784 217.539L365.585 219.759L366.377 222.005L367.159 224.278L367.927 226.576L368.677 228.898L369.406 231.245L370.11 233.616L370.784 236.008L371.425 238.421L372.029 240.853L372.59 243.302L373.104 245.767L373.567 248.244L373.974 250.73L374.32 253.225L374.6 255.723L374.81 258.221L374.944 260.717L375 263.206L374.972 265.684L374.855 268.147L374.647 270.59L374.343 273.01L373.941 275.401L373.437 277.76L372.828 280.08L372.114 282.359L371.293 284.591L370.363 286.773L369.325 288.899L368.179 290.966L366.925 292.971L365.566 294.91L364.102 296.779L362.536 298.577L360.87 300.299L359.109 301.945L357.255 303.511L355.313 304.998L353.287 306.404L351.183 307.728L349.005 308.97L346.758 310.131L344.449 311.211L342.083 312.211L339.666 313.133L337.205 313.98L334.705 314.753L332.173 315.455L329.616 316.09L327.039 316.661L324.45 317.173L321.853 317.629L319.255 318.035L316.662 318.396L314.079 318.716L311.512 319.001L308.967 319.257L306.447 319.49L303.957 319.705L301.503 319.91L299.086 320.109L296.712 320.31L294.383 320.519L292.102 320.742L289.871 320.984L287.691 321.253L285.566 321.554L283.495 321.892L281.479 322.274L279.518 322.704L277.612 323.187L275.761 323.729L273.964 324.333L272.218 325.004L270.523 325.744L268.876 326.557L267.274 327.447L265.715 328.414L264.197 329.46L262.714 330.587L261.264 331.796L259.844 333.086L258.448 334.456L257.073 335.907L255.715 337.436L254.369 339.042L253.031 340.72L251.696 342.469L250.36 344.284L249.019 346.161L247.667 348.094L246.301 350.079L244.916 352.108L243.509 354.175L242.075 356.274L240.611 358.396L239.114 360.534L237.58 362.678L236.006 364.819L234.39 366.947L232.73 369.053L231.024 371.127L229.27 373.159L227.469 375.14L225.619 377.06L223.72 378.91L221.775 380.682L219.783 382.367L217.745 383.957L215.664 385.443L213.542 386.817L211.381 388.071L209.184 389.198L206.954 390.19L204.695 391.041L202.411 391.745L200.106 392.298L197.784 392.693L195.45 392.928L193.108 393L190.765 392.906L188.424 392.646L186.091 392.218L183.771 391.624L181.468 390.864L179.189 389.941L176.938 388.857L174.719 387.617L172.537 386.225L170.396 384.686L168.3 383.007L166.252 381.194L164.257 379.254L162.316 377.195L160.433 375.026L158.609 372.755L156.846 370.393L155.145 367.948L153.506 365.43L151.931 362.85L150.419 360.218L148.968 357.545L147.578 354.841L146.248 352.117L144.975 349.382L143.756 346.648L142.588 343.925L141.469 341.222L140.394 338.549L139.359 335.916L138.36 333.331L137.392 330.802L136.451 328.338L135.53 325.947L134.625 323.634L133.729 321.407L132.838 319.27L131.946 317.23L131.046 315.29L130.133 313.455L129.202 311.726L128.246 310.108L127.26 308.601L126.239 307.207L125.178 305.926L124.072 304.757L122.916 303.7L121.706 302.753L120.437 301.913L119.107 301.179L117.711 300.546L116.248 300.011L114.715 299.569L113.109 299.216L111.43 298.945L109.676 298.751L107.847 298.627L105.943 298.568L103.965 298.566L101.913 298.614L99.7902 298.705L97.5981 298.83L95.3397 298.983L93.0185 299.154L90.6385 299.336L88.2042 299.52L85.7204 299.7L83.1924 299.866L80.6257 300.013L78.0261 300.131L75.3996 300.216L72.7525 300.259L70.0909 300.256L67.4212 300.2L64.7496 300.087L62.0823 299.912L59.4252 299.672L56.7839 299.363L54.1641 298.982L51.5715 298.528L49.0116 297.997L46.49 297.388L44.0121 296.7L41.5834 295.931L39.209 295.08L36.8941 294.148L34.6433 293.135L32.4615 292.039L30.353 290.863L28.322 289.607L26.3724 288.273L24.5078 286.861L22.7315 285.374L21.0466 283.815L19.4555 282.184L17.9606 280.486L16.5639 278.723L15.2667 276.897L14.0703 275.013L12.9753 273.073L11.9822 271.082L11.0908 269.043L10.3005 266.959L9.6106 264.835L9.01964 262.675L8.52593 260.482L8.12731 258.261L7.82126 256.015L7.60486 253.748L7.47482 251.465L7.42747 249.169L7.45882 246.864L7.56454 244.553L7.73999 242.24L7.98025 239.928L8.28013 237.62L8.63421 235.319L9.03687 233.027L9.48228 230.748L9.96448 228.482L10.4774 226.233L11.0149 224.002L11.5707 221.79L12.1386 219.598L12.7123 217.427L13.2859 215.277L13.8531 213.15L14.4081 211.044L14.9452 208.96L15.4587 206.897L15.9435 204.853L16.3945 202.829L16.807 200.822L17.1768 198.831L17.4999 196.854L17.7728 194.89L17.9925 192.935L18.1563 190.989L18.2622 189.047L18.3086 187.109L18.2945 185.171L18.2194 183.231L18.0833 181.286L17.8869 179.333L17.6313 177.371L17.3183 175.396L16.95 173.407L16.5293 171.401L16.0593 169.376L15.5436 167.331L14.9864 165.263L14.3921 163.171L13.7653 161.055L13.1109 158.912L12.4341 156.743L11.7399 154.547L11.0335 152.323L10.3203 150.072L9.60561 147.793L8.89426 145.487L8.19086 143.155L7.49962 140.797L6.82436 138.414L6.16854 136.006L5.53527 133.574L4.92731 131.12L4.3471 128.643L3.79671 126.145L3.27791 123.626L2.79217 121.087L2.34083 118.53L1.9252 115.954L1.54655 113.36L1.20615 110.751L0.90526 108.125L0.645121 105.486L0.426989 102.833L0.252124 100.167L0.121804 97.491L0.0373234 94.8052L0 92.111L0.0111762 89.4101L0.0722202 86.7039L0.184526 83.9943L0.349512 81.2828L0.568619 78.5715L0.843303 75.8623L1.17504 73.1573L1.5653 70.4587L2.01556 67.7689L2.52728 65.0904L3.10192 62.4256L3.74088 59.7772L4.44554 57.1481L5.21722 54.541L6.05717 51.959L6.96657 49.4051L7.94648 46.8824L8.9979 44.3941L10.1217 41.9435L11.3186 39.5338L12.5891 37.1683L13.9337 34.8504L15.3528 32.5833L16.8462 30.3705L18.4141 28.215L20.056 26.1202L21.7716 24.0891L23.5601 22.1249L25.4207 20.2304L27.3523 18.4085L29.3535 16.6619L31.423 14.9931L33.5589 13.4045L35.7595 11.8983L38.0226 10.4765L40.346 9.14088L42.7273 7.89312L45.1639 6.73457L47.653 5.66642L50.1918 4.68962L52.7773 3.80488L55.4065 3.01273L58.0761 2.31345L60.7829 1.70712L63.5236 1.1936L66.2949 0.772551L69.0935 0.443455L71.9158 0.205606L74.7587 0.0581295L77.6187 0L80.4926 0.0300491L83.3771 0.146981L86.269 0.349388L89.1652 0.635758L92.0626 1.00449L94.9584 1.45392L97.8496 1.98228L100.733 2.58776L103.607 3.2685L106.468 4.02255L109.314 4.84789L112.143 5.74245L114.951 6.70401L117.738 7.73028L120.5 8.81878L123.235 9.96685L125.941 11.1716L128.617 12.4299L131.26 13.7385L133.869 15.0941L136.441 16.4936L138.976 17.9341L141.472 19.413L143.928 20.9275L146.343 22.475L148.717 24.0528L151.048 25.6581L153.336 27.288L155.58 28.9391L157.779 30.6079L159.933 32.2905L162.041 33.9829L164.104 35.6813L166.121 37.3819L168.093 39.081L170.019 40.7751L171.9 42.4607L173.736 44.1345L175.529 45.7931L177.279 47.4333L178.987 49.052L180.655 50.6459L182.282 52.212L183.871 53.7475L185.424 55.2494L186.941 56.7151L188.424 58.1419L189.875 59.5274L191.296 60.8691L192.689 62.165L194.056 63.4129L195.398 64.6113L196.718 65.7583L198.019 66.8527L199.302 67.8932L200.569 68.879L201.824 69.8092L203.067 70.6835L204.302 71.5016L205.531 72.2636L206.755 72.9697L207.977 73.6204L209.199 74.2165L210.423 74.759L211.652 75.249L212.886 75.688L214.127 76.0776L215.378 76.4196L216.64 76.716L217.914 76.9689L219.202 77.1806L220.504 77.3535L221.822 77.4902L223.157 77.5933L224.51 77.6655L225.88 77.7094L227.269 77.7279L228.678 77.7239L230.106 77.7001L231.554 77.6593L233.021 77.6044L234.508 77.538L236.015 77.4629L237.541 77.3817L239.087 77.297L240.651 77.2112L242.233 77.1269L243.833 77.0462L245.451 76.9714L247.085 76.9047L248.735 76.848L250.4 76.8032L252.08 76.7721L253.774 76.7565L255.481 76.758L257.2 76.7781L258.93 76.8181L260.671 76.8795L262.421 76.9634L264.18 77.071L265.947 77.2034L267.721 77.3616L269.501 77.5465L271.286 77.7589L273.076 77.9995L274.869 78.2689L276.664 78.5678L278.462 78.8966L280.26 79.2556L282.059 79.645L283.858 80.0651L285.656 80.5161L287.452 80.9982L289.246 81.5117L291.036 82.0567L292.823 82.6337L294.604 83.243L296.379 83.8852L298.146 84.5609L299.903 85.2708L301.65 86.0156L303.383 86.7964L305.101 87.6143L306.801 88.47L308.48 89.3647L310.137 90.2989L311.768 91.2733L313.372 92.2887L314.945 93.3455L316.485 94.444L317.99 95.5844L319.457 96.7666L320.884 97.9904L322.27 99.2554L323.611 100.561L324.908 101.906L326.158 103.29L327.36 104.711L328.514 106.168L329.62 107.661L330.676 109.186L331.682 110.742L332.64 112.327L333.549 113.941L334.411 115.579L335.226 117.242L335.996 118.926L336.722 120.629L337.405 122.35L338.048 124.086L338.653 125.837L339.221 127.599L339.756 129.371L340.259 131.151L340.733 132.939L341.18 134.732L341.604 136.528L342.007 138.328L342.392 140.13L342.761 141.932L343.117 143.734L343.464 145.536L343.802 147.336L344.136 149.135L344.468 150.932L344.8 152.727L345.134 154.52L345.474 156.312L345.82 158.101L346.175 159.89L346.541 161.678L346.919 163.466L347.312 165.254L347.72 167.044L348.145 168.836L348.588 170.632L349.05 172.431L349.531 174.236L350.033 176.046L350.556 177.865L351.101 179.692L351.667 181.528L352.254 183.376L352.862 185.236L353.492 187.109Z" fill="url(#paint1_linear_163_2168)"/>
<defs>
<linearGradient id="paint0_linear_163_2168" x1="146.316" y1="-187.537" x2="-170.644" y2="-290.842" gradientUnits="userSpaceOnUse">
<stop stop-color="#00B2D6"/>
<stop offset="1" stop-color="#F29E21"/>
<stop offset="1" stop-color="#00DDFA"/>
</linearGradient>
<linearGradient id="paint1_linear_163_2168" x1="877.226" y1="-779.919" x2="1133.14" y2="-492.076" gradientUnits="userSpaceOnUse">
<stop stop-color="#0077B8"/>
<stop offset="1" stop-color="#0095C7"/>
</linearGradient>
</defs>
</svg>
